PathFileType	4	(X/Y/Z)	Patient4_TMGait_0pt7_02_right_23.trc.trc
DataRate	CameraRate	NumFrames	NumMarkers	Units	OrigDataRate	OrigDataStartFrame	OrigNumFrames
85.889570552147	85.889570552147	5	33	mm	85.889570552147	71	       141
Frame#	Time	Sacral			L.Shoulder			Chest			R.Shoulder			Neck			R.ASIS			L.ASIS			R.Thigh.Superior			R.Thigh.Lateral			R.Thigh.Inferior			R.Patella			L.Thigh.Superior			L.Thigh.Lateral			L.Thigh.Inferior			L.Patella			L.Shank.Superior			L.Shank.Lateral			L.Shank.Inferior			R.Shank.Superior			R.Shank.Lateral			R.Shank.Inferior			R.Heel			R.Midfoot.Superior			R.Midfoot.Lateral			R.Toe			L.Heel			L.Midfoot.Lateral			L.Midfoot.Superior			L.Toe			L.Elbow			L.Wrist			R.Elbow			R.Wrist			
		X1	Y1	Z1	X2	Y2	Z2	X3	Y3	Z3	X4	Y4	Z4	X5	Y5	Z5	X6	Y6	Z6	X7	Y7	Z7	X8	Y8	Z8	X9	Y9	Z9	X10	Y10	Z10	X11	Y11	Z11	X12	Y12	Z12	X13	Y13	Z13	X14	Y14	Z14	X15	Y15	Z15	X16	Y16	Z16	X17	Y17	Z17	X18	Y18	Z18	X19	Y19	Z19	X20	Y20	Z20	X21	Y21	Z21	X22	Y22	Z22	X23	Y23	Z23	X24	Y24	Z24	X25	Y25	Z25	X26	Y26	Z26	X27	Y27	Z27	X28	Y28	Z28	X29	Y29	Z29	X30	Y30	Z30	X31	Y31	Z31	X32	Y32	Z32	X33	Y33	Z33	

71	26.375000000000	852.010424453293	1004.630623605415	522.458682148162	1027.030507771200	1422.760836060681	329.027386638196	1146.659771357683	1346.215829731712	475.310925165888	1089.313389186528	1423.142089081491	657.345527938279	1048.757478758926	1480.677014292802	484.212155508767	1076.424206522794	932.374982906349	631.180500575216	1055.656458849681	942.518531565549	355.411900841860	1062.510445432453	718.346349315534	609.797502270804	948.564400623926	631.408868672029	667.588357319789	1007.335932263727	561.481208758380	590.840095549692	983.428289903914	477.386579623589	594.484951722467	1130.599811765856	769.484729164378	391.274815068508	1091.893762173643	639.935374696623	306.472323794229	1198.729209552434	587.194154557271	367.841804597362	1228.726269281109	521.611120744279	363.121550459358	1213.484841744274	447.252804890439	351.970971104510	1147.878795878408	317.242074824063	301.083551586118	1236.577346879400	218.916152178006	354.340161919895	941.165652764904	396.503613884172	598.819549553395	852.574870736820	304.907294673685	657.981088701273	881.659922714874	205.404632871921	593.210445061527	729.279650924632	48.803748160414	557.516405344471	903.515900742835	97.693859727400	593.161842520729	813.083622586308	37.896408333551	630.112963313467	1021.333263917264	39.580480672163	617.572993340425	1155.080596771038	42.008912317538	392.197461906051	1227.135860947165	47.252810766951	310.327261390584	1299.618063267523	121.369556030320	332.067980067952	1432.110721184285	89.215470412659	302.114224280349	833.867127874644	1136.405649419912	234.219642651798	740.090865962944	895.485431514767	237.137947399997	1258.688837962141	1130.690647111499	756.872257508780	1432.755149660995	1250.573469420412	624.866200518331	
72	26.386642857143	853.437665638589	1003.230985966617	518.755519697482	1028.452542301993	1421.631616973458	326.133119109825	1147.514048115605	1345.637814806661	473.196225548263	1088.544845177080	1422.474214454331	654.673670100355	1048.919389380989	1479.622212309406	481.389425450985	1077.418304037445	931.072733128326	629.100273245575	1058.427837545922	941.195013864909	353.426877422347	1063.142428724990	716.845533547426	608.232167946911	948.418623240905	630.515175896614	665.656515699469	1007.245910440351	559.928442454050	589.449591771703	982.442803338728	475.396337503219	592.960338670846	1132.144480449590	765.683506859328	389.822355517550	1090.482064354679	636.170805523429	306.961054195600	1196.948653422849	582.787232481516	368.566452958581	1225.209440824567	516.385470451996	364.951167318452	1209.380505478691	442.250102574735	353.534909273191	1142.270858142554	312.796179870432	303.437798570697	1229.597211025768	213.803151828476	357.388894369498	938.802327203120	395.065154724545	597.555035782912	848.602938692282	305.214875759472	657.038398591396	875.835734121963	205.018607963129	592.725757846000	721.298959002024	50.030175110899	557.743780573472	895.605193349956	97.650120371194	593.074562334605	805.056746564403	38.393425147745	630.390084218711	1013.242856991222	39.198162849986	617.679452563947	1144.809533318312	39.876572289977	395.712154564834	1217.041620635885	43.294794818892	313.764996120338	1291.591657751673	114.832184740546	336.030117012501	1423.357794307211	78.689003006242	306.097442522734	833.036356267388	1137.629092059723	232.075117521491	735.870153952392	897.832019622323	236.742651221510	1262.054796317111	1133.248935773792	754.240084105517	1427.419592737425	1262.888985445183	621.427839270841	
73	26.398285714286	854.724651226546	1002.043568385041	515.015229420951	1029.984613866700	1420.614268259505	323.114510538152	1148.458736911103	1345.158415039406	470.976346165904	1087.930908461622	1421.955705064751	651.914504667677	1049.270136969034	1478.742901072400	478.395770394545	1078.423671775981	929.908443220601	626.850851938656	1061.003516568503	940.144475829942	351.310681770063	1064.029624186736	715.511384376209	606.502551003245	948.671458784269	629.661360890045	663.568034600866	1007.668111665174	558.446649115331	587.943793196319	982.036584159575	473.350550150701	591.357548146602	1133.806994941377	762.548601631535	388.197728436366	1089.506061790183	633.254292239584	307.083495571741	1195.578326151652	579.277571102034	369.060352827342	1222.133401206282	512.008462346331	366.479382198421	1205.743395967038	438.011964784818	354.741419966376	1137.213587114031	309.247644922298	304.977531802344	1222.777066935098	209.421275930325	359.844974732747	936.870374808427	393.661335755052	596.234600640370	844.957011985601	305.709218391600	656.014155656590	870.258137993929	204.787973329888	592.232425956983	713.398995671381	51.644538273148	557.997856953791	887.857817747476	97.697791930319	593.032681044539	797.091044505161	39.074970598075	630.668478287194	1005.174488065807	38.824602244276	617.771134255971	1134.395026945779	38.377455018357	398.240425485920	1206.953991075802	40.179903843536	316.371240341313	1283.448031203387	109.162424948518	339.457852271074	1414.561970712261	69.189679335921	309.781263249170	833.316712463359	1138.100997609677	229.804366558968	733.083753571260	899.362922559307	235.998824166469	1264.766446689132	1135.435055751654	751.931086209932	1421.721395881431	1273.600234390689	618.559194821341	
74	26.409928571429	855.868478929751	1001.161193325152	511.301840476841	1031.600413076641	1419.783036044399	320.015907156701	1149.485367743740	1344.819270786593	468.662636137138	1087.544115467050	1421.647214803437	649.096900555608	1049.834509006675	1478.108082831786	475.274183187542	1079.412042290739	928.955334626282	624.420217142026	1063.309493244965	939.439853747258	349.030361400102	1065.100721001707	714.422988601265	604.586719528853	949.291323586206	628.919040411650	661.354210375488	1008.569537329316	557.113946307687	586.346711575913	982.213996236304	471.313947593939	589.770969489589	1135.535014311453	760.277501939637	386.383959476007	1089.091832216058	631.357323015710	306.703854477028	1194.670417447174	576.795345712211	369.190514088038	1219.603707482069	508.638628979761	367.498616186763	1202.694198751790	434.673700466205	355.454949684150	1132.869493827901	306.695203089729	305.594045469061	1216.319652705527	205.914011982693	361.594806020591	935.361150380269	392.371217682429	594.932070202037	841.629468864869	306.470946978146	654.955692448891	864.955272332644	204.793073620789	591.785903058220	705.609369901755	53.745316167155	558.297959974682	880.334735100577	97.866865166188	593.079975224698	789.206795277126	39.981585038174	630.947151250835	997.133185155206	38.474923178171	617.839052913309	1124.225829518065	37.478008105537	399.824667827190	1197.189204609020	37.934966518602	318.133845475580	1275.388506687042	104.582815055257	342.183739826968	1405.945624751111	61.190602305392	312.913091981566	834.672369138439	1137.860846385909	227.372676335306	731.834878399623	900.035087961531	234.826377094136	1266.733335853164	1137.171743164271	749.954071398159	1415.758096716620	1282.696702398561	616.242813340070	
75	26.421571428571	856.891463029197	1000.650221524064	507.663002825318	1033.260344205473	1419.208656091603	316.887696825625	1150.576005413109	1344.659891437764	466.268821096250	1087.438510016320	1421.596057763733	646.251872163349	1050.613314396263	1477.773209733335	472.082397247039	1080.364147128274	928.275704631837	621.793650956584	1065.306197298374	939.133376437751	346.544669365740	1066.292128614557	713.648545824217	602.466996384763	950.256435596384	628.350011314968	659.053483335041	1009.930391435087	555.999889416402	584.690698894438	982.991074137466	469.347052432407	588.312390637957	1137.281676918749	758.996196901571	384.357492329628	1089.296917531500	630.537078134851	305.742736907808	1194.226805604663	575.352999364173	368.833002142527	1217.658104121183	506.306256484026	367.848269031057	1200.260487554231	432.253351744836	355.604431171567	1129.257112446632	305.129708400032	305.293786084478	1210.293577764437	203.310314977987	362.615872242598	934.283903889789	391.261590568774	593.730394920721	838.628693853241	307.571393951992	653.917814215938	859.965316118800	205.103910881787	591.446853576397	697.965138186188	56.426638148316	558.667206621050	873.094477827494	98.178503306083	593.257734328876	781.426195197228	41.154610080815	631.231495359133	989.123895786017	38.163751975927	617.873533441600	1114.523911789260	37.087018878302	400.590364171781	1187.901407361924	36.495545038240	319.124888666561	1267.493770914464	101.174679875079	344.136325590461	1397.600680017959	54.946023311999	315.332045541856	837.035924898271	1136.988367309117	224.748976541190	732.218445810809	899.830733975286	233.164648647501	1267.865650062108	1138.393203042978	748.305926382857	1409.618400100632	1290.174098105371	614.444802756053	
